
<svg version="1.1"
	 xmlns="http://www.w3.org/2000/svg" xmlns:xlink="http://www.w3.org/1999/xlink" xmlns:a="http://ns.adobe.com/AdobeSVGViewerExtensions/3.0/"
	 x="0px" y="0px" width="22px" height="23px" viewBox="0 -0.507 22 23" enable-background="new 0 -0.507 22 23"
	 xml:space="preserve">
<defs>
</defs>
<path fill="#6D7E89" d="M21.989,17.35c0.047,0.357-0.062,0.668-0.325,0.932l-3.098,3.074c-0.141,0.156-0.322,0.288-0.548,0.396
	c-0.226,0.109-0.446,0.179-0.663,0.209c-0.016,0-0.063,0.004-0.141,0.012c-0.077,0.008-0.178,0.012-0.303,0.012
	c-0.295,0-0.772-0.05-1.432-0.15c-0.66-0.102-1.468-0.35-2.422-0.746c-0.955-0.396-2.039-0.989-3.25-1.781
	c-1.211-0.792-2.5-1.879-3.866-3.261c-1.087-1.071-1.987-2.096-2.702-3.074c-0.714-0.978-1.289-1.882-1.724-2.713
	C1.083,9.428,0.757,8.675,0.54,8S0.175,6.742,0.097,6.253C0.02,5.764-0.012,5.38,0.004,5.1C0.02,4.821,0.027,4.666,0.027,4.634
	c0.031-0.217,0.101-0.438,0.209-0.664s0.241-0.408,0.396-0.547L3.73,0.326C3.948,0.108,4.196,0,4.476,0
	c0.202,0,0.38,0.058,0.536,0.174c0.155,0.117,0.287,0.26,0.396,0.431l2.492,4.728c0.14,0.249,0.179,0.521,0.117,0.815
	S7.821,6.692,7.62,6.894L6.479,8.035C6.447,8.066,6.42,8.116,6.397,8.186S6.362,8.314,6.362,8.361
	C6.424,8.687,6.564,9.06,6.781,9.479c0.187,0.373,0.474,0.827,0.862,1.362s0.939,1.153,1.653,1.852
	c0.699,0.714,1.32,1.269,1.863,1.665s0.998,0.688,1.363,0.873c0.364,0.187,0.644,0.299,0.838,0.338l0.292,0.059
	c0.03,0,0.081-0.012,0.15-0.035c0.07-0.023,0.121-0.051,0.152-0.082l1.327-1.35c0.279-0.249,0.605-0.373,0.978-0.373
	c0.265,0,0.475,0.047,0.629,0.14h0.023l4.495,2.655C21.733,16.784,21.928,17.04,21.989,17.35z"/>
</svg>
