
<svg version="1.1" id="Слой_1" xmlns="http://www.w3.org/2000/svg" xmlns:xlink="http://www.w3.org/1999/xlink" x="0px" y="0px"
	 width="20px" height="20px" viewBox="0 0 20 20" enable-background="new 0 0 20 20" xml:space="preserve">
<path fill="#6D7E89" d="M10.095,10.598c2.5,0,4.526-2.373,4.526-5.299C14.621,1.241,12.596,0,10.095,0
	c-2.5,0-4.527,1.241-4.527,5.298C5.568,8.225,7.595,10.598,10.095,10.598z"/>
<path fill="#6D7E89" d="M20.091,18.396l-2.284-5.146c-0.104-0.234-0.287-0.432-0.517-0.549l-3.544-1.846
	c-0.078-0.041-0.173-0.032-0.242,0.021c-1.003,0.759-2.182,1.159-3.409,1.159s-2.406-0.4-3.408-1.159
	c-0.071-0.053-0.166-0.062-0.243-0.021L2.9,12.701c-0.229,0.117-0.412,0.313-0.516,0.549L0.1,18.396
	c-0.157,0.354-0.125,0.76,0.087,1.084C0.397,19.807,0.755,20,1.143,20h17.904c0.389,0,0.746-0.193,0.957-0.52
	C20.216,19.154,20.248,18.749,20.091,18.396z"/>
</svg>
